<?xml version="1.0" encoding="utf-8"?>
<!-- Generator: Adobe Illustrator 17.0.0, SVG Export Plug-In . SVG Version: 6.00 Build 0)  -->
<!DOCTYPE svg PUBLIC "-//W3C//DTD SVG 1.1//EN" "http://www.w3.org/Graphics/SVG/1.1/DTD/svg11.dtd">
<svg xmlns="http://www.w3.org/2000/svg" xmlns:xlink="http://www.w3.org/1999/xlink" version="1.1" id="Layer_1" x="0px" y="0px" width="50px" height="50px" viewBox="0 0 50 50" enable-background="new 0 0 50 50" xml:space="preserve">

<path fill="none" stroke="#000000" stroke-width="2" stroke-linecap="round" stroke-linejoin="round" stroke-miterlimit="10" d="  M37.344,30c0.297-0.772,0.916-2.369,1.108-3.144l6.545-1.148v-5.5l-6.545-1.069c-0.388-1.551-0.996-3.008-1.798-4.343l3.815-5.437  l-3.889-3.887L31.211,9.33c-1.338-0.81-2.804-1.428-4.365-1.817L25.704,1h-5.5l-1.06,6.492c-1.562,0.384-3.037,0.992-4.379,1.799  L9.414,5.468L5.525,9.355l3.765,5.384c-0.814,1.348-1.433,2.821-1.826,4.393L1,20.208v5.5l6.456,1.144  c0.389,1.569,1.009,3.042,1.826,4.391L5.467,36.58l3.888,3.891l5.39-3.776c1.345,0.809,2.817,1.423,4.379,1.808L20.204,45h5.5  L27,38.494 M22.998,30.333c-4.049,0-7.333-3.284-7.333-7.333s3.283-7.333,7.333-7.333s7.333,3.284,7.333,7.333  S27.048,30.333,22.998,30.333z"/>
<path fill="none" stroke="#000000" stroke-width="2" stroke-miterlimit="10" d="M47.154,30h-9.399h-8.909  C27.826,30,27,30.827,27,31.846V33h22v-1.154C49,30.827,48.174,30,47.154,30z"/>
<polyline fill="none" stroke="#000000" stroke-width="2" stroke-linecap="round" stroke-linejoin="round" stroke-miterlimit="10" points="  49,33 49,49 27,49 27,33 "/>
<polyline fill="none" stroke="#000000" stroke-width="2" stroke-linecap="square" stroke-miterlimit="10" points="31,38.287 33,40   37,36 "/>
<polyline fill="none" stroke="#000000" stroke-width="2" stroke-linecap="square" stroke-miterlimit="10" points="31,43.287 33,45   37,41 "/>
</svg>
